<?xml version="1.0" encoding="UTF-8" standalone="no"?>
<!DOCTYPE svg PUBLIC "-//W3C//DTD SVG 1.1//EN" "http://www.w3.org/Graphics/SVG/1.1/DTD/svg11.dtd">
<svg width="100%" height="100%" viewBox="0 0 72 72" version="1.1" xmlns="http://www.w3.org/2000/svg" xmlns:xlink="http://www.w3.org/1999/xlink" xml:space="preserve" xmlns:serif="http://www.serif.com/" style="fill-rule:evenodd;clip-rule:evenodd;stroke-linejoin:round;stroke-miterlimit:2;">
    <g transform="matrix(0.319806,0,0,0.319806,-259.021,-354.843)">
        <path d="M922.5,1240.59C927.225,1240.59 931.06,1244.43 931.06,1249.15C931.06,1253.88 927.225,1257.71 922.5,1257.71C917.775,1257.71 913.94,1253.88 913.94,1249.15C913.94,1244.43 917.775,1240.59 922.5,1240.59ZM959.122,1217.13L885.878,1217.13L885.878,1227.13L959.122,1227.13L959.122,1217.13ZM922.5,1186.54C927.225,1186.54 931.06,1190.37 931.06,1195.1C931.06,1199.82 927.225,1203.66 922.5,1203.66C917.775,1203.66 913.94,1199.82 913.94,1195.1C913.94,1190.37 917.775,1186.54 922.5,1186.54Z" style="fill:rgb(26,28,78);"/>
    </g>
</svg>
